<svg 
viewBox="0 0 26 26" 
xmlns="http://www.w3.org/2000/svg">
<path fill-rule="evenodd" clip-rule="evenodd" d="M13 .5C6.1.5.5 6.1.5 13S6.1 25.5 13 25.5 25.5 19.9 25.5 13 19.9.5 13 .5zM6.838 20.85c.537-1.125 3.812-2.225 6.162-2.225s5.638 1.1 6.163 2.225A9.866 9.866 0 0113 23c-2.325 0-4.462-.8-6.162-2.15zM13 16.125c1.825 0 6.163.738 7.95 2.913A9.937 9.937 0 0023 13c0-5.513-4.488-10-10-10S3 7.487 3 13c0 2.275.775 4.363 2.05 6.038 1.788-2.175 6.125-2.913 7.95-2.913zM13 5.5a4.364 4.364 0 00-4.375 4.375A4.364 4.364 0 0013 14.25a4.364 4.364 0 004.375-4.375A4.364 4.364 0 0013 5.5zm-1.875 4.375c0 1.037.838 1.875 1.875 1.875a1.872 1.872 0 001.875-1.875A1.872 1.872 0 0013 8a1.872 1.872 0 00-1.875 1.875z" fill="#000"/>
</svg>